<?xml version="1.0" encoding="UTF-8"?>
<svg width="128px" height="832px" viewBox="0 0 128 832" version="1.1" xmlns="http://www.w3.org/2000/svg" xmlns:xlink="http://www.w3.org/1999/xlink">
    <title>artexb_skin_custom</title>
    <g id="artexb_skin_custom" stroke="none" stroke-width="1" fill="none" fill-rule="evenodd">
        <path d="M110.682813,153.809375 L105.102813,159.389375 C104.462813,160.029375 104.902813,161.109375 105.802813,161.109375 L109.382813,161.109375 C109.382813,167.729375 104.002813,173.109375 97.3828125,173.109375 C95.8028125,173.109375 94.2628125,172.809375 92.8828125,172.229375 C92.1628125,171.929375 91.3428125,172.149375 90.8028125,172.689375 C89.7828125,173.709375 90.1428125,175.429375 91.4828125,175.969375 C93.3028125,176.709375 95.3028125,177.109375 97.3828125,177.109375 C106.222813,177.109375 113.382813,169.949375 113.382813,161.109375 L116.962813,161.109375 C117.862813,161.109375 118.302813,160.029375 117.662813,159.409375 L112.082813,153.829375 C111.702813,153.429375 111.062813,153.429375 110.682813,153.809375 L110.682813,153.809375 Z M85.3828125,161.109375 C85.3828125,154.489375 90.7628125,149.109375 97.3828125,149.109375 C98.9628125,149.109375 100.502813,149.409375 101.882813,149.989375 C102.602813,150.289375 103.422813,150.069375 103.962813,149.529375 C104.982813,148.509375 104.622813,146.789375 103.282813,146.249375 C101.462813,145.509375 99.4628125,145.109375 97.3828125,145.109375 C88.5428125,145.109375 81.3828125,152.269375 81.3828125,161.109375 L77.8028125,161.109375 C76.9028125,161.109375 76.4628125,162.189375 77.1028125,162.809375 L82.6828125,168.389375 C83.0828125,168.789375 83.7028125,168.789375 84.1028125,168.389375 L89.6828125,162.809375 C90.3028125,162.189375 89.8628125,161.109375 88.9628125,161.109375 L85.3828125,161.109375 L85.3828125,161.109375 Z" id="Shape" fill="#FFFFFF" fill-rule="nonzero"></path>
        <path d="M95.0494792,155.109375 C94.1328125,155.109375 93.3828125,155.859375 93.3828125,156.776042 L93.3828125,165.109375 C93.3828125,166.026042 94.1328125,166.776042 95.0494792,166.776042 C95.9661458,166.776042 96.7161458,166.026042 96.7161458,165.109375 L96.7161458,156.776042 C96.7161458,155.859375 95.9661458,155.109375 95.0494792,155.109375 Z" id="Path" fill="#FFFFFF"></path>
        <path d="M100.049479,156.776042 L100.049479,165.109375 C100.049479,166.026042 100.799479,166.776042 101.716146,166.776042 C102.632813,166.776042 103.382813,166.026042 103.382813,165.109375 L103.382813,156.776042 C103.382813,155.859375 102.632813,155.109375 101.716146,155.109375 C100.799479,155.109375 100.049479,155.859375 100.049479,156.776042 Z" id="Path" fill="#FFFFFF"></path>
        <path d="M32.5,16 L32.5,50.21875 L29.921875,47.6875 L22.84375,40.609375 L16,40.609375 L16,25.609375 L22.84375,25.609375 L29.921875,18.53125 L32.5,16 Z M29.5,23.265625 L24.578125,28.1875 L24.109375,28.609375 L19,28.609375 L19,37.609375 L24.109375,37.609375 L24.578125,38.03125 L29.5,42.953125 L29.5,23.265625 Z M40.328125,26.78125 L38.171875,28.9375 L42.34375,33.109375 L38.171875,37.28125 L40.328125,39.4375 L44.5,35.265625 L48.671875,39.4375 L50.828125,37.28125 L46.65625,33.109375 L50.828125,28.9375 L48.671875,26.78125 L44.5,30.953125 L40.328125,26.78125 Z" id="-copy-2" fill="#FFFFFF"></path>
        <path d="M105,13 C106.625008,13 108.124993,13.4062459 109.5,14.21875 C110.875007,15.0312541 111.968746,16.1249931 112.78125,17.5 C113.593754,18.8750069 114,20.3749919 114,22 C114,22.6875034 113.875001,23.4374959 113.625,24.25 C113.437499,24.9062533 113.125002,25.7187452 112.6875,26.6875 C111.999997,28.281258 111.125005,29.9843659 110.0625,31.796875 C109.281246,33.1718819 108.406255,34.5937427 107.4375,36.0625 L105,39.625 L103.78125,37.84375 C102.499994,35.9999908 101.218756,33.9843859 99.9375,31.796875 C98.8749947,29.9843659 98.0000034,28.281258 97.3125,26.6875 C96.8749978,25.7187452 96.5625009,24.9062533 96.375,24.25 C96.1249988,23.4374959 96,22.6875034 96,22 C96,20.3749919 96.4062459,18.8750069 97.21875,17.5 C98.0312541,16.1249931 99.1249931,15.0312541 100.5,14.21875 C101.875007,13.4062459 103.374992,13 105,13 Z M89.953125,15.90625 L93.9375,17.359375 C93.5624981,18.2656295 93.2968758,19.2343698 93.140625,20.265625 L91.5,19.65625 L91.5,41.96875 L100.5,45.34375 L100.5,38.40625 L103.5,42.765625 L103.5,45.203125 L111,42.015625 L111,36.0625 C112.218756,34.1249903 113.218746,32.4062575 114,30.90625 L114,43.984375 L102.046875,49.09375 L90.046875,44.59375 L78,49.796875 L78,21.015625 L89.953125,15.90625 Z M105,16 C103.906245,16 102.898442,16.2656223 101.976562,16.796875 C101.054683,17.3281277 100.328128,18.0546829 99.796875,18.9765625 C99.2656223,19.8984421 99,20.9062445 99,22 C99,22.3125016 99.0937491,22.7890593 99.28125,23.4296875 C99.4687509,24.0703157 99.7187484,24.7499964 100.03125,25.46875 C100.593753,26.7500064 101.437494,28.3593653 102.5625,30.296875 C103.281254,31.5156311 104.015621,32.6874944 104.765625,33.8125 L105,34.1875 L105.234375,33.8125 C105.984379,32.6874944 106.718746,31.5156311 107.4375,30.296875 C108.562506,28.3593653 109.406247,26.7500064 109.96875,25.46875 C110.281252,24.7499964 110.531249,24.0703157 110.71875,23.4296875 C110.906251,22.7890593 111,22.3125016 111,22 C111,20.9062445 110.734378,19.8984421 110.203125,18.9765625 C109.671872,18.0546829 108.945317,17.3281277 108.023438,16.796875 C107.101558,16.2656223 106.093755,16 105,16 Z M88.5,19.75 L81,22.984375 L81,45.203125 L88.5,42.015625 L88.5,19.75 Z M105,19.75 C105.625003,19.75 106.156248,19.9687478 106.59375,20.40625 C107.031252,20.8437522 107.25,21.3749969 107.25,22 C107.25,22.6250031 107.031252,23.1562478 106.59375,23.59375 C106.156248,24.0312522 105.625003,24.25 105,24.25 C104.374997,24.25 103.843752,24.0312522 103.40625,23.59375 C102.968748,23.1562478 102.75,22.6250031 102.75,22 C102.75,21.3749969 102.968748,20.8437522 103.40625,20.40625 C103.843752,19.9687478 104.374997,19.75 105,19.75 Z" id="" fill="#FFFFFF"></path>
        <path d="M49.8828125,78.78125 L49.8828125,104.609375 C49.8828125,105.70313 49.6093777,106.70312 49.0625,107.609375 C48.5156223,108.51563 47.789067,109.242185 46.8828125,109.789063 C45.976558,110.33594 44.976568,110.609375 43.8828125,110.609375 C42.789057,110.609375 41.789067,110.33594 40.8828125,109.789063 C39.976558,109.242185 39.2500027,108.51563 38.703125,107.609375 C38.1562473,106.70312 37.8828125,105.70313 37.8828125,104.609375 C37.8828125,103.51562 38.1562473,102.51563 38.703125,101.609375 C39.2500027,100.70312 39.976558,99.9765652 40.8828125,99.4296875 C41.789067,98.8828098 42.7734322,98.609375 43.8359375,98.609375 C44.8984428,98.609375 45.9140577,98.8906222 46.8828125,99.453125 L46.8828125,88.390625 L25.8828125,92.328125 L25.8828125,109.109375 C25.8828125,110.20313 25.6093777,111.20312 25.0625,112.109375 C24.5156223,113.01563 23.789067,113.742185 22.8828125,114.289063 C21.976558,114.83594 20.976568,115.109375 19.8828125,115.109375 C18.789057,115.109375 17.789067,114.83594 16.8828125,114.289063 C15.976558,113.742185 15.2500027,113.01563 14.703125,112.109375 C14.1562473,111.20312 13.8828125,110.20313 13.8828125,109.109375 C13.8828125,108.01562 14.1562473,107.01563 14.703125,106.109375 C15.2500027,105.20312 15.976558,104.476565 16.8828125,103.929688 C17.789067,103.38281 18.7734322,103.109375 19.8359375,103.109375 C20.8984428,103.109375 21.9140577,103.390622 22.8828125,103.953125 L22.8828125,83.84375 L24.1015625,83.65625 L48.1015625,79.15625 L49.8828125,78.78125 Z M46.8828125,82.390625 L25.8828125,86.328125 L25.8828125,89.328125 L46.8828125,85.390625 L46.8828125,82.390625 Z M43.8828125,101.609375 C43.0390583,101.609375 42.3281279,101.898435 41.75,102.476563 C41.1718721,103.05469 40.8828125,103.765621 40.8828125,104.609375 C40.8828125,105.453129 41.1718721,106.16406 41.75,106.742188 C42.3281279,107.320315 43.0390583,107.609375 43.8828125,107.609375 C44.7265667,107.609375 45.4374971,107.320315 46.015625,106.742188 C46.5937529,106.16406 46.8828125,105.453129 46.8828125,104.609375 C46.8828125,103.765621 46.5937529,103.05469 46.015625,102.476563 C45.4374971,101.898435 44.7265667,101.609375 43.8828125,101.609375 Z M19.8828125,106.109375 C19.0390583,106.109375 18.3281279,106.398435 17.75,106.976563 C17.1718721,107.55469 16.8828125,108.265621 16.8828125,109.109375 C16.8828125,109.953129 17.1718721,110.66406 17.75,111.242188 C18.3281279,111.820315 19.0390583,112.109375 19.8828125,112.109375 C20.7265667,112.109375 21.4374971,111.820315 22.015625,111.242188 C22.5937529,110.66406 22.8828125,109.953129 22.8828125,109.109375 C22.8828125,108.265621 22.5937529,107.55469 22.015625,106.976563 C21.4374971,106.398435 20.7265667,106.109375 19.8828125,106.109375 Z" id="-copy-2" fill="#FFFFFF"></path>
        <polygon id="-copy" fill="#FFFFFF" points="105.958595 98.9736328 103.802345 101.129883 107.97422 105.301758 103.802345 109.473633 105.958595 111.629883 110.13047 107.458008 114.302345 111.629883 116.458595 109.473633 112.28672 105.301758 116.458595 101.129883 114.302345 98.9736328 110.13047 103.145508"></polygon>
        <path d="M113.958595,78.6376953 L113.958595,96.6156953 L110.958595,96.3156953 L110.958595,88.2470703 L89.9585953,92.1845703 L89.9585953,108.96582 C89.9585953,110.059576 89.6851605,111.059566 89.1382828,111.96582 C88.591405,112.872075 87.8648498,113.59863 86.9585953,114.145508 C86.0523407,114.692386 85.0523507,114.96582 83.9585953,114.96582 C82.8648398,114.96582 81.8648498,114.692386 80.9585953,114.145508 C80.0523407,113.59863 79.3257855,112.872075 78.7789078,111.96582 C78.23203,111.059566 77.9585953,110.059576 77.9585953,108.96582 C77.9585953,107.872065 78.23203,106.872075 78.7789078,105.96582 C79.3257855,105.059566 80.0523407,104.333011 80.9585953,103.786133 C81.8648498,103.239255 82.849215,102.96582 83.9117203,102.96582 C84.9742256,102.96582 85.9898404,103.247068 86.9585953,103.80957 L86.9585953,83.7001953 L88.1773453,83.5126953 L112.177345,79.0126953 L113.958595,78.6376953 Z M110.958595,82.2470703 L89.9585953,86.1845703 L89.9585953,89.1845703 L110.958595,85.2470703 L110.958595,82.2470703 Z M83.9585953,105.96582 C83.1148411,105.96582 82.4039107,106.25488 81.8257828,106.833008 C81.2476549,107.411136 80.9585953,108.122066 80.9585953,108.96582 C80.9585953,109.809575 81.2476549,110.520505 81.8257828,111.098633 C82.4039107,111.676761 83.1148411,111.96582 83.9585953,111.96582 C84.8023495,111.96582 85.5132799,111.676761 86.0914078,111.098633 C86.6695357,110.520505 86.9585953,109.809575 86.9585953,108.96582 C86.9585953,108.122066 86.6695357,107.411136 86.0914078,106.833008 C85.5132799,106.25488 84.8023495,105.96582 83.9585953,105.96582 Z" id="-copy" fill="#FFFFFF"></path>
        <path d="M46.6828125,153.809375 L41.1028125,159.389375 C40.4628125,160.029375 40.9028125,161.109375 41.8028125,161.109375 L45.3828125,161.109375 C45.3828125,167.729375 40.0028125,173.109375 33.3828125,173.109375 C31.8028125,173.109375 30.2628125,172.809375 28.8828125,172.229375 C28.1628125,171.929375 27.3428125,172.149375 26.8028125,172.689375 C25.7828125,173.709375 26.1428125,175.429375 27.4828125,175.969375 C29.3028125,176.709375 31.3028125,177.109375 33.3828125,177.109375 C42.2228125,177.109375 49.3828125,169.949375 49.3828125,161.109375 L52.9628125,161.109375 C53.8628125,161.109375 54.3028125,160.029375 53.6628125,159.409375 L48.0828125,153.829375 C47.7028125,153.429375 47.0628125,153.429375 46.6828125,153.809375 L46.6828125,153.809375 Z M21.3828125,161.109375 C21.3828125,154.489375 26.7628125,149.109375 33.3828125,149.109375 C34.9628125,149.109375 36.5028125,149.409375 37.8828125,149.989375 C38.6028125,150.289375 39.4228125,150.069375 39.9628125,149.529375 C40.9828125,148.509375 40.6228125,146.789375 39.2828125,146.249375 C37.4628125,145.509375 35.4628125,145.109375 33.3828125,145.109375 C24.5428125,145.109375 17.3828125,152.269375 17.3828125,161.109375 L13.8028125,161.109375 C12.9028125,161.109375 12.4628125,162.189375 13.1028125,162.809375 L18.6828125,168.389375 C19.0828125,168.789375 19.7028125,168.789375 20.1028125,168.389375 L25.6828125,162.809375 C26.3028125,162.189375 25.8628125,161.109375 24.9628125,161.109375 L21.3828125,161.109375 L21.3828125,161.109375 Z" id="Shape" fill="#FFFFFF" fill-rule="nonzero"></path>
        <path d="M29.3828125,165.564931 C29.3828125,166.425858 30.3099648,166.955659 31.0605167,166.514158 L38.8530112,161.834247 C39.5594129,161.414821 39.5594129,160.377293 38.8530112,159.935792 L31.0605167,155.25588 C30.3099648,154.836454 29.3828125,155.366256 29.3828125,156.227183 L29.3828125,165.564931 Z" id="Path-Copy" fill="#FFFFFF"></path>
        <path d="M21.8828125,204.609375 L48.1328125,204.609375 L48.1328125,224.609375 L40.6328125,224.609375 L40.6328125,220.859375 L43.1328125,220.859375 L43.1328125,222.109375 L45.6328125,222.109375 L45.6328125,207.109375 L43.1328125,207.109375 L43.1328125,208.359375 L40.6328125,208.359375 L40.6328125,207.109375 L29.3828125,207.109375 L29.3828125,208.359375 L26.8828125,208.359375 L26.8828125,207.109375 L24.3828125,207.109375 L24.3828125,213.359375 L21.8828125,213.359375 L21.8828125,204.609375 Z M26.8828125,210.859375 L29.3828125,210.859375 L29.3828125,213.359375 L26.8828125,213.359375 L26.8828125,210.859375 Z M40.6328125,210.859375 L43.1328125,210.859375 L43.1328125,213.359375 L40.6328125,213.359375 L40.6328125,210.859375 Z M11.8828125,215.859375 L38.1328125,215.859375 L38.1328125,238.359375 L11.8828125,238.359375 L11.8828125,215.859375 Z M40.6328125,215.859375 L43.1328125,215.859375 L43.1328125,218.359375 L40.6328125,218.359375 L40.6328125,215.859375 Z M14.3828125,218.359375 L14.3828125,231.09375 L21.765625,223.710938 L22.625,224.609375 L27.9765625,230 L31.4921875,226.484375 L32.390625,227.34375 L35.6328125,230.585938 L35.6328125,218.359375 L14.3828125,218.359375 Z M28.7578125,220.859375 C29.2786484,220.859375 29.7213523,221.041665 30.0859375,221.40625 C30.4505227,221.770835 30.6328125,222.213539 30.6328125,222.734375 C30.6328125,223.255211 30.4505227,223.697915 30.0859375,224.0625 C29.7213523,224.427085 29.2786484,224.609375 28.7578125,224.609375 C28.2369766,224.609375 27.7942727,224.427085 27.4296875,224.0625 C27.0651023,223.697915 26.8828125,223.255211 26.8828125,222.734375 C26.8828125,222.213539 27.0651023,221.770835 27.4296875,221.40625 C27.7942727,221.041665 28.2369766,220.859375 28.7578125,220.859375 Z M21.765625,227.265625 L14.3828125,234.648438 L14.3828125,235.859375 L35.6328125,235.859375 L35.6328125,234.140625 L31.4921875,230 L28.875,232.617188 L28.015625,233.515625 L21.765625,227.265625 Z" id="-copy" fill="#FFFFFF"></path>
        <path d="M109.982813,212.529375 C109.202813,211.749375 107.942813,211.749375 107.162813,212.529375 L97.3828125,222.289375 L87.6028125,212.509375 C86.8228125,211.729375 85.5628125,211.729375 84.7828125,212.509375 C84.0028125,213.289375 84.0028125,214.549375 84.7828125,215.329375 L94.5628125,225.109375 L84.7828125,234.889375 C84.0028125,235.669375 84.0028125,236.929375 84.7828125,237.709375 C85.5628125,238.489375 86.8228125,238.489375 87.6028125,237.709375 L97.3828125,227.929375 L107.162813,237.709375 C107.942813,238.489375 109.202813,238.489375 109.982813,237.709375 C110.762813,236.929375 110.762813,235.669375 109.982813,234.889375 L100.202813,225.109375 L109.982813,215.329375 C110.742813,214.569375 110.742813,213.289375 109.982813,212.529375 L109.982813,212.529375 Z" id="Shape" fill="#FFFFFF" fill-rule="nonzero"></path>
        <path d="M33.3828125,269.609375 C35.8203247,269.609375 38.085927,270.218744 40.1796875,271.4375 C42.2109477,272.656256 43.8359314,274.28124 45.0546875,276.3125 C46.2734436,278.40626 46.8828125,280.671863 46.8828125,283.109375 C46.8828125,284.07813 46.6953144,285.203119 46.3203125,286.484375 C46.0078109,287.54688 45.5234408,288.812493 44.8671875,290.28125 C43.8046822,292.687512 42.4140711,295.374985 40.6953125,298.34375 C39.4453063,300.531261 38.0546952,302.781238 36.5234375,305.09375 L33.3828125,309.734375 L32.1640625,307.953125 C31.66406,307.234371 31.0234414,306.281256 30.2421875,305.09375 C28.7109298,302.781238 27.3203187,300.531261 26.0703125,298.34375 C24.3515539,295.374985 22.9609428,292.687512 21.8984375,290.28125 C21.2421842,288.812493 20.7578141,287.54688 20.4453125,286.484375 C20.0703106,285.203119 19.8828125,284.07813 19.8828125,283.109375 C19.8828125,280.671863 20.4921814,278.40626 21.7109375,276.3125 C22.9296936,274.28124 24.5546773,272.656256 26.5859375,271.4375 C28.679698,270.218744 30.9453003,269.609375 33.3828125,269.609375 Z M33.3828125,272.609375 C31.476553,272.609375 29.718758,273.07812 28.109375,274.015625 C26.499992,274.95313 25.2265672,276.226554 24.2890625,277.835938 C23.3515578,279.445321 22.8828125,281.203115 22.8828125,283.109375 C22.8828125,283.703128 23.0390609,284.539057 23.3515625,285.617188 C23.6640641,286.695318 24.0859348,287.843744 24.6171875,289.0625 C25.523442,291.12501 26.8828034,293.718734 28.6953125,296.84375 C30.2265702,299.468763 31.7578048,301.937488 33.2890625,304.25 L33.3828125,304.34375 L33.4765625,304.25 C35.0078202,301.937488 36.5390548,299.468763 38.0703125,296.84375 C39.8828216,293.718734 41.242183,291.12501 42.1484375,289.0625 C42.6796902,287.843744 43.1015609,286.695318 43.4140625,285.617188 C43.7265641,284.539057 43.8828125,283.703128 43.8828125,283.109375 C43.8828125,281.203115 43.4140672,279.445321 42.4765625,277.835938 C41.5390578,276.226554 40.265633,274.95313 38.65625,274.015625 C37.046867,273.07812 35.289072,272.609375 33.3828125,272.609375 Z M33.3828125,280.109375 C34.2265667,280.109375 34.9374971,280.398435 35.515625,280.976563 C36.0937529,281.55469 36.3828125,282.265621 36.3828125,283.109375 C36.3828125,283.953129 36.0937529,284.66406 35.515625,285.242188 C34.9374971,285.820315 34.2265667,286.109375 33.3828125,286.109375 C32.5390583,286.109375 31.8281279,285.820315 31.25,285.242188 C30.6718721,284.66406 30.3828125,283.953129 30.3828125,283.109375 C30.3828125,282.265621 30.6718721,281.55469 31.25,280.976563 C31.8281279,280.398435 32.5390583,280.109375 33.3828125,280.109375 Z" id="-copy" fill="#FFFFFF"></path>
        <path d="M86.3671875,269.609375 C87.1796916,269.609375 87.9140592,269.874997 88.5703125,270.40625 L88.7109375,270.5 L94.8515625,276.828125 L94.8046875,276.875 C95.4609408,277.500003 95.7890625,278.26562 95.7890625,279.171875 C95.7890625,280.07813 95.4765656,280.843747 94.8515625,281.46875 L91.8515625,284.46875 C92.9140678,286.906262 94.3046789,288.937492 96.0234375,290.5625 C97.8046964,292.250008 99.8515509,293.656244 102.164063,294.78125 L105.164063,291.78125 C105.789066,291.156247 106.570308,290.84375 107.507813,290.84375 C108.445317,290.84375 109.226559,291.156247 109.851563,291.78125 L109.898438,291.875 L115.992188,297.96875 C116.617191,298.593753 116.929688,299.367183 116.929688,300.289063 C116.929688,301.210942 116.617191,301.984372 115.992188,302.609375 L111.257813,307.34375 C110.539059,307.968753 109.718755,308.374999 108.796875,308.5625 C107.874995,308.750001 106.960942,308.687502 106.054688,308.375 L106.007813,308.375 C99.2890289,305.749987 93.6172106,302.125023 88.9921875,297.5 C86.1796734,294.687486 83.726573,291.515643 81.6328125,287.984375 C80.132805,285.421862 78.9609417,282.921887 78.1171875,280.484375 L78.1171875,280.4375 C77.8046859,279.562496 77.7578114,278.664067 77.9765625,277.742188 C78.1953136,276.820308 78.6640589,276.031253 79.3828125,275.375 L79.3359375,275.328125 L84.0703125,270.453125 L84.1640625,270.40625 C84.8203158,269.874997 85.5546834,269.609375 86.3671875,269.609375 Z M86.3671875,272.609375 C86.273437,272.609375 86.1640631,272.65625 86.0390625,272.75 L81.3984375,277.484375 C81.1484363,277.703126 80.976563,278.007811 80.8828125,278.398438 C80.789062,278.789064 80.8046869,279.140623 80.9296875,279.453125 C81.7109414,281.671886 82.8046805,283.999988 84.2109375,286.4375 C86.1796973,289.781267 88.4765494,292.765612 91.1015625,295.390625 C95.3515838,299.640646 100.648406,303.015613 106.992188,305.515625 C107.867192,305.796876 108.632809,305.656253 109.289063,305.09375 L113.976563,300.40625 C114.039063,300.34375 114.070313,300.304688 114.070313,300.289063 C114.070313,300.273437 114.039063,300.234375 113.976563,300.171875 L107.695313,293.890625 C107.601562,293.796875 107.539063,293.75 107.507813,293.75 C107.476562,293.75 107.414063,293.796875 107.320313,293.890625 L102.820313,298.390625 L100.710938,297.40625 C99.7109325,296.906248 98.7421922,296.343753 97.8046875,295.71875 C96.4921809,294.874996 95.3203177,293.98438 94.2890625,293.046875 L93.9609375,292.765625 C92.8984322,291.73437 91.8984422,290.531257 90.9609375,289.15625 C90.3046842,288.156245 89.7109402,287.10938 89.1796875,286.015625 L88.6171875,284.703125 L88.2890625,283.765625 L88.9921875,283.109375 L92.7421875,279.359375 C92.835938,279.265625 92.8671877,279.156251 92.8359375,279.03125 L86.6953125,272.75 C86.5703119,272.65625 86.460938,272.609375 86.3671875,272.609375 Z" id="-copy" fill="#FFFFFF"></path>
        <path d="M16.8828125,336.609375 L28.8828125,336.609375 L28.8828125,348.609375 L22.8828125,348.609375 L22.8828125,351.609375 L19.8828125,351.609375 L19.8828125,348.609375 L16.8828125,348.609375 L16.8828125,336.609375 Z M28.8828125,348.609375 L37.8828125,348.609375 L37.8828125,336.609375 L49.8828125,336.609375 L49.8828125,348.609375 L46.8828125,348.609375 L46.8828125,351.609375 L43.8828125,351.609375 L43.8828125,348.609375 L40.8828125,348.609375 L40.8828125,351.609375 L34.8828125,351.609375 L34.8828125,354.609375 L37.8828125,354.609375 L37.8828125,357.609375 L28.8828125,357.609375 L28.8828125,369.609375 L16.8828125,369.609375 L16.8828125,357.609375 L25.8828125,357.609375 L25.8828125,354.609375 L31.8828125,354.609375 L31.8828125,351.609375 L28.8828125,351.609375 L28.8828125,348.609375 Z M46.8828125,351.609375 L49.8828125,351.609375 L49.8828125,354.609375 L46.8828125,354.609375 L46.8828125,351.609375 Z M46.8828125,354.609375 L46.8828125,357.609375 L43.8828125,357.609375 L43.8828125,354.609375 L46.8828125,354.609375 Z M46.8828125,357.609375 L49.8828125,357.609375 L49.8828125,360.609375 L46.8828125,360.609375 L46.8828125,357.609375 Z M46.8828125,360.609375 L46.8828125,363.609375 L45.3828125,363.609375 L45.3828125,366.609375 L42.3828125,366.609375 L42.3828125,363.609375 L36.3828125,363.609375 L36.3828125,369.609375 L33.3828125,369.609375 L33.3828125,360.609375 L40.8828125,360.609375 L40.8828125,357.609375 L43.8828125,357.609375 L43.8828125,360.609375 L46.8828125,360.609375 Z M42.3828125,366.609375 L42.3828125,369.609375 L39.3828125,369.609375 L39.3828125,366.609375 L42.3828125,366.609375 Z M43.8828125,354.609375 L40.8828125,354.609375 L40.8828125,351.609375 L43.8828125,351.609375 L43.8828125,354.609375 Z M25.8828125,354.609375 L22.8828125,354.609375 L22.8828125,351.609375 L25.8828125,351.609375 L25.8828125,354.609375 Z M19.8828125,351.609375 L19.8828125,354.609375 L16.8828125,354.609375 L16.8828125,351.609375 L19.8828125,351.609375 Z M31.8828125,336.609375 L34.8828125,336.609375 L34.8828125,339.609375 L36.3828125,339.609375 L36.3828125,342.609375 L34.8828125,342.609375 L34.8828125,347.109375 L31.8828125,347.109375 L31.8828125,345.609375 L30.3828125,345.609375 L30.3828125,342.609375 L31.8828125,342.609375 L31.8828125,336.609375 Z M19.8828125,339.609375 L19.8828125,345.609375 L25.8828125,345.609375 L25.8828125,339.609375 L19.8828125,339.609375 Z M40.8828125,339.609375 L40.8828125,345.609375 L46.8828125,345.609375 L46.8828125,339.609375 L40.8828125,339.609375 Z M21.3828125,341.109375 L24.3828125,341.109375 L24.3828125,344.109375 L21.3828125,344.109375 L21.3828125,341.109375 Z M42.3828125,341.109375 L45.3828125,341.109375 L45.3828125,344.109375 L42.3828125,344.109375 L42.3828125,341.109375 Z M19.8828125,360.609375 L19.8828125,366.609375 L25.8828125,366.609375 L25.8828125,360.609375 L19.8828125,360.609375 Z M21.3828125,362.109375 L24.3828125,362.109375 L24.3828125,365.109375 L21.3828125,365.109375 L21.3828125,362.109375 Z M46.8828125,366.609375 L49.8828125,366.609375 L49.8828125,369.609375 L46.8828125,369.609375 L46.8828125,366.609375 Z" id="-copy" fill="#FFFFFF"></path>
        <path d="M109.382812,361.269375 C107.862812,361.269375 106.502813,361.869375 105.462812,362.809375 L91.2028125,354.509375 C91.3028125,354.049375 91.3828125,353.589375 91.3828125,353.109375 C91.3828125,352.629375 91.3028125,352.169375 91.2028125,351.709375 L105.302813,343.489375 C106.382812,344.489375 107.802813,345.109375 109.382812,345.109375 C112.702812,345.109375 115.382812,342.429375 115.382812,339.109375 C115.382812,335.789375 112.702812,333.109375 109.382812,333.109375 C106.062813,333.109375 103.382812,335.789375 103.382812,339.109375 C103.382812,339.589375 103.462812,340.049375 103.562813,340.509375 L89.4628125,348.729375 C88.3828125,347.729375 86.9628125,347.109375 85.3828125,347.109375 C82.0628125,347.109375 79.3828125,349.789375 79.3828125,353.109375 C79.3828125,356.429375 82.0628125,359.109375 85.3828125,359.109375 C86.9628125,359.109375 88.3828125,358.489375 89.4628125,357.489375 L103.702812,365.809375 C103.602812,366.229375 103.542812,366.669375 103.542812,367.109375 C103.542812,370.329375 106.162813,372.949375 109.382812,372.949375 C112.602812,372.949375 115.222813,370.329375 115.222813,367.109375 C115.222813,363.889375 112.602812,361.269375 109.382812,361.269375 Z" id="Shape" fill="#FFFFFF" fill-rule="nonzero"></path>
        <path d="M18.3828125,397.609375 L38.4921875,397.609375 L48.3828125,407.5 L48.3828125,436.609375 L18.3828125,436.609375 L18.3828125,397.609375 Z M21.3828125,400.609375 L21.3828125,433.609375 L45.3828125,433.609375 L45.3828125,409.609375 L36.3828125,409.609375 L36.3828125,400.609375 L21.3828125,400.609375 Z M39.3828125,402.71875 L39.3828125,406.609375 L43.2734375,406.609375 L39.3828125,402.71875 Z M24.3828125,412.609375 L42.3828125,412.609375 L42.3828125,415.609375 L24.3828125,415.609375 L24.3828125,412.609375 Z M24.3828125,420.109375 L34.8828125,420.109375 L34.8828125,423.109375 L24.3828125,423.109375 L24.3828125,420.109375 Z M37.8828125,420.109375 L42.3828125,420.109375 L42.3828125,423.109375 L37.8828125,423.109375 L37.8828125,420.109375 Z M24.3828125,426.109375 L34.8828125,426.109375 L34.8828125,429.109375 L24.3828125,429.109375 L24.3828125,426.109375 Z M37.8828125,426.109375 L42.3828125,426.109375 L42.3828125,429.109375 L37.8828125,429.109375 L37.8828125,426.109375 Z" id="-copy" fill="#FFFFFF"></path>
        <path d="M99.3828125,403.257813 L99.9921875,403.460938 L116.242188,409.960938 L120,411.484375 L109.894531,415.546875 L120,419.609375 L109.894531,423.671875 L120,427.734375 L116.242188,429.257813 L99.9921875,435.757813 L99.3828125,435.960938 L98.7734375,435.757813 L82.5234375,429.257813 L78.765625,427.734375 L88.8710938,423.671875 L78.765625,419.609375 L88.8710938,415.546875 L78.765625,411.484375 L82.5234375,409.960938 L98.7734375,403.460938 L99.3828125,403.257813 Z M99.3828125,406.761719 L87.5507812,411.484375 L99.3828125,416.207031 L111.214844,411.484375 L99.3828125,406.761719 Z M93.2890625,417.324219 L87.5507812,419.609375 L99.3828125,424.332031 L111.214844,419.609375 L105.476562,417.324219 L99.9921875,419.507813 L99.3828125,419.710938 L98.7734375,419.507813 L93.2890625,417.324219 Z M93.2890625,425.449219 L87.5507812,427.734375 L99.3828125,432.457031 L111.214844,427.734375 L105.476562,425.449219 L99.9921875,427.632813 L99.3828125,427.835938 L98.7734375,427.632813 L93.2890625,425.449219 Z" id="-copy" fill="#FFFFFF"></path>
        <path d="M34.4107563,654.757812 L35.0201313,654.757812 C36.2076373,654.757812 37.2310645,655.148434 38.0904438,655.929688 C38.9498231,656.710941 39.3795063,657.648432 39.3795063,658.742188 C39.3795063,660.429696 38.910761,661.914056 37.9732563,663.195312 C37.7232551,663.539064 37.4576327,663.820311 37.1763813,664.039062 L37.0357563,664.132812 L36.7545063,665.257812 L45.3795063,665.257812 C46.317011,665.257812 47.1607526,665.515622 47.9107563,666.03125 C48.6607601,666.546878 49.2076296,667.226558 49.5513813,668.070312 C49.895133,668.914067 49.9732573,669.789058 49.7857563,670.695312 L46.5513813,685.695312 C46.3326302,686.726568 45.809198,687.578122 44.9810688,688.25 C44.1529397,688.921878 43.2076366,689.257812 42.1451313,689.257812 L16.8795063,689.257812 L16.8795063,665.257812 L23.7701313,665.257812 L33.9420063,655.179688 L34.4107563,654.757812 Z M35.4888813,657.898438 L25.8795063,667.367188 L25.8795063,686.257812 L42.1451313,686.257812 C42.5201332,686.257812 42.8482549,686.148439 43.1295063,685.929688 C43.4107577,685.710936 43.582631,685.429689 43.6451313,685.085938 L46.8326313,670.085938 C46.9263818,669.585935 46.8326327,669.156252 46.5513813,668.796875 C46.2701299,668.437498 45.8795088,668.257812 45.3795063,668.257812 L32.8638813,668.257812 L33.3326313,666.382812 L34.2232563,663.007812 L34.4107563,662.398438 L34.9263813,662.117188 L35.1138813,661.976562 C35.2701321,661.851562 35.4263805,661.679689 35.5826313,661.460938 C36.113884,660.742184 36.3795063,659.835943 36.3795063,658.742188 C36.3795063,658.304685 36.0826343,658.023438 35.4888813,657.898438 Z M19.8795063,668.257812 L19.8795063,686.257812 L22.8795063,686.257812 L22.8795063,668.257812 L19.8795063,668.257812 Z" id="-copy" fill="#FFFFFF"></path>
        <path d="M13.8828125,528.609375 L52.8828125,528.609375 L52.8828125,555.609375 L30.8984375,555.609375 L21.3828125,563.203125 L21.3828125,555.609375 L13.8828125,555.609375 L13.8828125,528.609375 Z M16.8828125,531.609375 L16.8828125,552.609375 L24.3828125,552.609375 L24.3828125,556.96875 L29.8671875,552.609375 L49.8828125,552.609375 L49.8828125,531.609375 L16.8828125,531.609375 Z" id="-copy" fill="#FFFFFF"></path>
        <path d="M81.3828125,533.109375 L77.3828125,533.109375 L77.3828125,561.109375 C77.3828125,563.309375 79.1828125,565.109375 81.3828125,565.109375 L109.382812,565.109375 L109.382812,561.109375 L81.3828125,561.109375 L81.3828125,533.109375 Z M113.382812,525.109375 L89.3828125,525.109375 C87.1828125,525.109375 85.3828125,526.909375 85.3828125,529.109375 L85.3828125,553.109375 C85.3828125,555.309375 87.1828125,557.109375 89.3828125,557.109375 L113.382812,557.109375 C115.582813,557.109375 117.382812,555.309375 117.382812,553.109375 L117.382812,529.109375 C117.382812,526.909375 115.582813,525.109375 113.382812,525.109375 Z M113.382812,553.109375 L89.3828125,553.109375 L89.3828125,529.109375 L113.382812,529.109375 L113.382812,553.109375 Z M93.3828125,539.109375 L109.382812,539.109375 L109.382812,543.109375 L93.3828125,543.109375 L93.3828125,539.109375 Z M93.3828125,545.109375 L101.382812,545.109375 L101.382812,549.109375 L93.3828125,549.109375 L93.3828125,545.109375 Z M93.3828125,533.109375 L109.382812,533.109375 L109.382812,537.109375 L93.3828125,537.109375 L93.3828125,533.109375 Z" id="Shape" fill="#FFFFFF" fill-rule="nonzero"></path>
        <path d="M47.3828125,589.109375 L19.3828125,589.109375 C17.1628125,589.109375 15.3828125,590.909375 15.3828125,593.109375 L15.3828125,621.109375 C15.3828125,623.309375 17.1628125,625.109375 19.3828125,625.109375 L27.3828125,625.109375 L33.3828125,631.109375 L39.3828125,625.109375 L47.3828125,625.109375 C49.5828125,625.109375 51.3828125,623.309375 51.3828125,621.109375 L51.3828125,593.109375 C51.3828125,590.909375 49.5828125,589.109375 47.3828125,589.109375 Z M47.3828125,621.109375 L37.7228125,621.109375 L36.5428125,622.289375 L33.3828125,625.449375 L30.2028125,622.269375 L29.0428125,621.109375 L19.3828125,621.109375 L19.3828125,593.109375 L47.3828125,593.109375 L47.3828125,621.109375 Z M33.3828125,607.109375 C36.6828125,607.109375 39.3828125,604.409375 39.3828125,601.109375 C39.3828125,597.809375 36.6828125,595.109375 33.3828125,595.109375 C30.0828125,595.109375 27.3828125,597.809375 27.3828125,601.109375 C27.3828125,604.409375 30.0828125,607.109375 33.3828125,607.109375 Z M33.3828125,599.109375 C34.4828125,599.109375 35.3828125,600.009375 35.3828125,601.109375 C35.3828125,602.209375 34.4828125,603.109375 33.3828125,603.109375 C32.2828125,603.109375 31.3828125,602.209375 31.3828125,601.109375 C31.3828125,600.009375 32.2828125,599.109375 33.3828125,599.109375 Z M45.3828125,616.269375 C45.3828125,611.269375 37.4428125,609.109375 33.3828125,609.109375 C29.3228125,609.109375 21.3828125,611.269375 21.3828125,616.269375 L21.3828125,619.109375 L45.3828125,619.109375 L45.3828125,616.269375 Z M26.3428125,615.109375 C27.8228125,614.089375 30.8028125,613.109375 33.3828125,613.109375 C35.9628125,613.109375 38.9428125,614.089375 40.4228125,615.109375 L26.3428125,615.109375 Z" id="Shape" fill="#FFFFFF" fill-rule="nonzero"></path>
        <path d="M82.3828125,589.609375 L112.382812,589.609375 L112.382812,628.609375 L82.3828125,628.609375 L82.3828125,589.609375 Z M85.3828125,592.609375 L85.3828125,625.609375 L109.382812,625.609375 L109.382812,592.609375 L85.3828125,592.609375 Z M97.3828125,599.6875 L105.257812,601.65625 L104.507812,604.5625 L100.382812,603.53125 L100.382812,613.609375 C100.382812,614.828131 99.9375045,615.882808 99.046875,616.773438 C98.1562455,617.664067 97.1015686,618.109375 95.8828125,618.109375 C94.6640564,618.109375 93.6093795,617.664067 92.71875,616.773438 C91.8281205,615.882808 91.3828125,614.828131 91.3828125,613.609375 C91.3828125,612.390619 91.8281205,611.335942 92.71875,610.445312 C93.6093795,609.554683 94.6640564,609.109375 95.8828125,609.109375 C96.3515648,609.109375 96.8515598,609.203124 97.3828125,609.390625 L97.3828125,599.6875 Z M95.8828125,612.109375 C95.4765605,612.109375 95.1250015,612.249999 94.828125,612.53125 C94.5312485,612.812501 94.3828125,613.16406 94.3828125,613.585938 C94.3828125,614.007815 94.5312485,614.367186 94.828125,614.664062 C95.1250015,614.960939 95.4843729,615.109375 95.90625,615.109375 C96.3281271,615.109375 96.6796861,614.960939 96.9609375,614.664062 C97.2421889,614.367186 97.3828125,614.007815 97.3828125,613.585938 C97.3828125,613.16406 97.2421889,612.812501 96.9609375,612.53125 C96.6796861,612.249999 96.3203147,612.109375 95.8828125,612.109375 Z" id="-copy" fill="#FFFFFF"></path>
        <path d="M98.8328125,677.124479 L94.5994792,672.941146 L94.6494792,672.891146 C97.5494792,669.657813 99.6161458,665.941146 100.832813,662.007812 L105.716146,662.007812 L105.716146,658.674479 L94.0494792,658.674479 L94.0494792,655.341146 L90.7161458,655.341146 L90.7161458,658.674479 L79.0494792,658.674479 L79.0494792,661.991146 L97.6661458,661.991146 C96.5494792,665.207813 94.7828125,668.257812 92.3828125,670.924479 C90.8328125,669.207813 89.5494792,667.324479 88.5328125,665.341146 L85.1994792,665.341146 C86.4161458,668.057813 88.0828125,670.624479 90.1661458,672.941146 L81.6828125,681.307813 L84.0494792,683.674479 L92.3828125,675.341146 L97.5661458,680.524479 L98.8328125,677.124479 Z M108.216146,668.674479 L104.882813,668.674479 L97.3828125,688.674479 L100.716146,688.674479 L102.582813,683.674479 L110.499479,683.674479 L112.382813,688.674479 L115.716146,688.674479 L108.216146,668.674479 Z M103.849479,680.341146 L106.549479,673.124479 L109.249479,680.341146 L103.849479,680.341146 L103.849479,680.341146 Z" id="Shape" fill="#FFFFFF" fill-rule="nonzero"></path>
        <path d="M33.8828125,717.164062 C37.4140802,717.164062 40.6952973,718.054679 43.7265625,719.835938 C46.6640772,721.554696 48.9921789,723.882798 50.7109375,726.820312 C52.4921964,729.851578 53.3828125,733.132795 53.3828125,736.664062 C53.3828125,740.19533 52.4921964,743.476547 50.7109375,746.507812 C48.9921789,749.445327 46.6640772,751.773429 43.7265625,753.492188 C40.6952973,755.273446 37.4140802,756.164062 33.8828125,756.164062 C30.3515448,756.164062 27.0703277,755.273446 24.0390625,753.492188 C21.1015478,751.773429 18.7734461,749.445327 17.0546875,746.507812 C15.2734286,743.476547 14.3828125,740.19533 14.3828125,736.664062 C14.3828125,733.132795 15.2734286,729.851578 17.0546875,726.820312 C18.7734461,723.882798 21.1015478,721.554696 24.0390625,719.835938 C27.0703277,718.054679 30.3515448,717.164062 33.8828125,717.164062 Z M33.8828125,720.164062 C30.8827975,720.164062 28.1015753,720.914055 25.5390625,722.414062 C23.0703002,723.88282 21.1015698,725.85155 19.6328125,728.320312 C18.132805,730.882825 17.3828125,733.664048 17.3828125,736.664062 C17.3828125,739.664077 18.132805,742.4453 19.6328125,745.007812 C21.1015698,747.476575 23.0703002,749.445305 25.5390625,750.914062 C28.1015753,752.41407 30.8827975,753.164062 33.8828125,753.164062 C36.8828275,753.164062 39.6640497,752.41407 42.2265625,750.914062 C44.6953248,749.445305 46.6640552,747.476575 48.1328125,745.007812 C49.63282,742.4453 50.3828125,739.664077 50.3828125,736.664062 C50.3828125,733.664048 49.63282,730.882825 48.1328125,728.320312 C46.6640552,725.85155 44.6953248,723.88282 42.2265625,722.414062 C39.6640497,720.914055 36.8828275,720.164062 33.8828125,720.164062 Z M33.8828125,724.664062 C35.2265692,724.664062 36.4765567,724.999997 37.6328125,725.671875 C38.7890683,726.343753 39.7031216,727.257807 40.375,728.414062 C41.0468784,729.570318 41.3828125,730.820306 41.3828125,732.164062 C41.3828125,733.257818 41.1484398,734.29687 40.6796875,735.28125 C40.2109352,736.26563 39.5546917,737.117184 38.7109375,737.835938 C40.4296961,738.710942 41.8046823,739.984367 42.8359375,741.65625 C43.8671927,743.328133 44.3828125,745.164053 44.3828125,747.164062 L41.3828125,747.164062 C41.3828125,745.789056 41.0468784,744.531256 40.375,743.390625 C39.7031216,742.249994 38.7968807,741.343753 37.65625,740.671875 C36.5156193,739.999997 35.2578194,739.664062 33.8828125,739.664062 C32.5078056,739.664062 31.2500057,739.999997 30.109375,740.671875 C28.9687443,741.343753 28.0625034,742.249994 27.390625,743.390625 C26.7187466,744.531256 26.3828125,745.789056 26.3828125,747.164062 L23.3828125,747.164062 C23.3828125,745.164053 23.8984323,743.328133 24.9296875,741.65625 C25.9609427,739.984367 27.3359289,738.710942 29.0546875,737.835938 C28.2109333,737.117184 27.5546898,736.26563 27.0859375,735.28125 C26.6171852,734.29687 26.3828125,733.257818 26.3828125,732.164062 C26.3828125,730.820306 26.7187466,729.570318 27.390625,728.414062 C28.0625034,727.257807 28.9765567,726.343753 30.1328125,725.671875 C31.2890683,724.999997 32.5390558,724.664062 33.8828125,724.664062 Z M33.8828125,727.664062 C32.6328063,727.664062 31.5703169,728.101558 30.6953125,728.976562 C29.8203081,729.851567 29.3828125,730.914056 29.3828125,732.164062 C29.3828125,733.414069 29.8203081,734.476558 30.6953125,735.351562 C31.5703169,736.226567 32.6328063,736.664062 33.8828125,736.664062 C35.1328187,736.664062 36.1953081,736.226567 37.0703125,735.351562 C37.9453169,734.476558 38.3828125,733.414069 38.3828125,732.164062 C38.3828125,730.914056 37.9453169,729.851567 37.0703125,728.976562 C36.1953081,728.101558 35.1328187,727.664062 33.8828125,727.664062 Z" id="-copy" fill="#FFFFFF"></path>
        <path d="M15.7023209,468.27931 C22.6089206,462.477843 31.4026399,468.821947 33.3899546,470.407131 C35.3772693,468.821947 44.1709886,462.477843 51.0775884,468.27931 C58.8221249,474.784634 45.6304123,488.551375 33.4072635,498.401888 C21.1741413,488.549456 7.95055565,474.790706 15.7023209,468.27931 Z" id="Combined-Shape" stroke="#FFFFFF" stroke-width="4"></path>
        <path d="M80.3123662,468.27931 C87.218966,462.477843 96.0126853,468.821947 98,470.407131 C99.9873147,468.821947 108.781034,462.477843 115.687634,468.27931 C123.43217,474.784634 110.240458,488.551375 98.0173089,498.401888 C85.7841867,488.549456 72.560601,474.790706 80.3123662,468.27931 Z" id="Combined-Shape-Copy" fill="#FFFFFF"></path>
        <polygon id="Combined-Shape" fill="#FFFFFF" fill-rule="nonzero" points="98.0872017 736.814453 119.687202 715.214453 117.565881 713.093133 95.9658813 734.693133 74.3658813 713.093133 72.244561 715.214453 93.844561 736.814453 72.6277419 758.031272 74.7490622 760.152593 95.9658813 738.935773 117.1827 760.152593 119.304021 758.031272 98.0872017 736.814453"></polygon>
        <path d="M24.5,816.5 L24.5,803 L18.5,803 L18.5,800 C18.5,797.5625 19.109375,795.28125 20.328125,793.15625 C21.515625,791.125 23.125,789.515625 25.15625,788.328125 C27.28125,787.109375 29.5625,786.5 32,786.5 C34.4375,786.5 36.71875,787.109375 38.84375,788.328125 C40.875,789.515625 42.484375,791.125 43.671875,793.15625 C44.890625,795.28125 45.5,797.5625 45.5,800 L45.5,803 L39.5,803 L39.5,816.5 L44,816.5 C45.21875,816.5 46.2734375,816.054688 47.1640625,815.164062 C48.0546875,814.273438 48.5,813.21875 48.5,812 L48.5,800 C48.5,797.03125 47.75,794.265625 46.25,791.703125 C44.78125,789.203125 42.796875,787.21875 40.296875,785.75 C37.734375,784.25 34.96875,783.5 32,783.5 C29.03125,783.5 26.265625,784.25 23.703125,785.75 C21.203125,787.21875 19.21875,789.203125 17.75,791.703125 C16.25,794.265625 15.5,797.03125 15.5,800 L15.5,812 C15.5,813.21875 15.9453125,814.273438 16.8359375,815.164062 C17.7265625,816.054688 18.78125,816.5 20,816.5 L24.5,816.5 Z M21.5,813.5 L20,813.5 C19.5625,813.5 19.203125,813.359375 18.921875,813.078125 C18.640625,812.796875 18.5,812.4375 18.5,812 L18.5,806 L21.5,806 L21.5,813.5 Z M44,813.5 L42.5,813.5 L42.5,806 L45.5,806 L45.5,812 C45.5,812.4375 45.359375,812.796875 45.078125,813.078125 C44.796875,813.359375 44.4375,813.5 44,813.5 Z" id="" fill="#FFFFFF" fill-rule="nonzero"></path>
    </g>
</svg>
